<mxfile host="app.diagrams.net" modified="2021-08-09T01:34:39.178Z" agent="5.0 (Macintosh; Intel Mac OS X 10_15_7) AppleWebKit/537.36 (KHTML, like Gecko) Chrome/92.0.4515.131 Safari/537.36 Edg/92.0.902.67" etag="9qMJPbgt40VsLe1WbAEb" version="14.9.5" type="github">
  <diagram id="Sxhlwo7oHvTldTJAUa9T" name="Page-1">
    <mxGraphModel dx="552" dy="571" grid="1" gridSize="10" guides="1" tooltips="1" connect="1" arrows="1" fold="1" page="1" pageScale="1" pageWidth="827" pageHeight="1169" math="0" shadow="0">
      <root>
        <mxCell id="0" />
        <mxCell id="1" parent="0" />
        <mxCell id="cgIbeY2z_72rr0lLqe45-2" value="true&lt;br style=&quot;font-size: 18px;&quot;&gt;" style="edgeStyle=orthogonalEdgeStyle;rounded=0;orthogonalLoop=1;jettySize=auto;html=1;fontSize=18;" parent="1" source="cgIbeY2z_72rr0lLqe45-4" target="cgIbeY2z_72rr0lLqe45-8" edge="1">
          <mxGeometry relative="1" as="geometry" />
        </mxCell>
        <mxCell id="cgIbeY2z_72rr0lLqe45-3" value="false&lt;br&gt;" style="edgeStyle=orthogonalEdgeStyle;rounded=0;orthogonalLoop=1;jettySize=auto;html=1;fontSize=18;" parent="1" source="cgIbeY2z_72rr0lLqe45-4" target="cgIbeY2z_72rr0lLqe45-21" edge="1">
          <mxGeometry relative="1" as="geometry" />
        </mxCell>
        <mxCell id="cgIbeY2z_72rr0lLqe45-4" value="&lt;h2&gt;Interceptor1&lt;/h2&gt;&lt;h3&gt;preHeadle()&lt;/h3&gt;" style="rounded=1;whiteSpace=wrap;html=1;fillColor=#E6D0DE;" parent="1" vertex="1">
          <mxGeometry x="110" y="310" width="160" height="80" as="geometry" />
        </mxCell>
        <mxCell id="cgIbeY2z_72rr0lLqe45-5" value="true" style="edgeStyle=orthogonalEdgeStyle;rounded=0;orthogonalLoop=1;jettySize=auto;html=1;fontSize=18;" parent="1" source="cgIbeY2z_72rr0lLqe45-8" target="cgIbeY2z_72rr0lLqe45-13" edge="1">
          <mxGeometry relative="1" as="geometry" />
        </mxCell>
        <mxCell id="cgIbeY2z_72rr0lLqe45-6" value="" style="edgeStyle=orthogonalEdgeStyle;rounded=0;orthogonalLoop=1;jettySize=auto;html=1;fontSize=18;" parent="1" source="cgIbeY2z_72rr0lLqe45-8" target="cgIbeY2z_72rr0lLqe45-23" edge="1">
          <mxGeometry relative="1" as="geometry" />
        </mxCell>
        <mxCell id="cgIbeY2z_72rr0lLqe45-7" value="false" style="edgeLabel;html=1;align=center;verticalAlign=middle;resizable=0;points=[];fontSize=18;" parent="cgIbeY2z_72rr0lLqe45-6" vertex="1" connectable="0">
          <mxGeometry x="-0.185" y="-1" relative="1" as="geometry">
            <mxPoint as="offset" />
          </mxGeometry>
        </mxCell>
        <mxCell id="cgIbeY2z_72rr0lLqe45-8" value="&lt;h2&gt;Interceptor2&lt;/h2&gt;&lt;h3&gt;preHeadle()&lt;/h3&gt;" style="rounded=1;whiteSpace=wrap;html=1;fillColor=#E6D0DE;" parent="1" vertex="1">
          <mxGeometry x="110" y="440" width="160" height="80" as="geometry" />
        </mxCell>
        <mxCell id="cgIbeY2z_72rr0lLqe45-9" value="" style="edgeStyle=orthogonalEdgeStyle;rounded=0;orthogonalLoop=1;jettySize=auto;html=1;entryX=0.5;entryY=0;entryDx=0;entryDy=0;" parent="1" source="cgIbeY2z_72rr0lLqe45-13" target="cgIbeY2z_72rr0lLqe45-15" edge="1">
          <mxGeometry relative="1" as="geometry" />
        </mxCell>
        <mxCell id="cgIbeY2z_72rr0lLqe45-10" value="true" style="edgeLabel;html=1;align=center;verticalAlign=middle;resizable=0;points=[];fontSize=18;" parent="cgIbeY2z_72rr0lLqe45-9" vertex="1" connectable="0">
          <mxGeometry x="-0.19" y="-2" relative="1" as="geometry">
            <mxPoint x="-1" as="offset" />
          </mxGeometry>
        </mxCell>
        <mxCell id="cgIbeY2z_72rr0lLqe45-11" value="" style="edgeStyle=orthogonalEdgeStyle;rounded=0;orthogonalLoop=1;jettySize=auto;html=1;fontSize=18;" parent="1" source="cgIbeY2z_72rr0lLqe45-13" target="cgIbeY2z_72rr0lLqe45-25" edge="1">
          <mxGeometry relative="1" as="geometry" />
        </mxCell>
        <mxCell id="cgIbeY2z_72rr0lLqe45-12" value="false&lt;br&gt;" style="edgeLabel;html=1;align=center;verticalAlign=middle;resizable=0;points=[];fontSize=18;" parent="cgIbeY2z_72rr0lLqe45-11" vertex="1" connectable="0">
          <mxGeometry x="-0.1422" y="-2" relative="1" as="geometry">
            <mxPoint as="offset" />
          </mxGeometry>
        </mxCell>
        <mxCell id="cgIbeY2z_72rr0lLqe45-13" value="&lt;h2&gt;Interceptor3&lt;/h2&gt;&lt;h3&gt;preHeadle()&lt;/h3&gt;" style="rounded=1;whiteSpace=wrap;html=1;fillColor=#E6D0DE;" parent="1" vertex="1">
          <mxGeometry x="110" y="580" width="160" height="80" as="geometry" />
        </mxCell>
        <mxCell id="cgIbeY2z_72rr0lLqe45-14" style="edgeStyle=orthogonalEdgeStyle;rounded=0;orthogonalLoop=1;jettySize=auto;html=1;entryX=0.5;entryY=1;entryDx=0;entryDy=0;fontSize=18;" parent="1" source="cgIbeY2z_72rr0lLqe45-15" target="cgIbeY2z_72rr0lLqe45-17" edge="1">
          <mxGeometry relative="1" as="geometry" />
        </mxCell>
        <mxCell id="cgIbeY2z_72rr0lLqe45-15" value="&lt;font style=&quot;font-size: 18px&quot;&gt;目标方法&lt;/font&gt;" style="rounded=1;whiteSpace=wrap;html=1;" parent="1" vertex="1">
          <mxGeometry x="80" y="700" width="630" height="60" as="geometry" />
        </mxCell>
        <mxCell id="cgIbeY2z_72rr0lLqe45-16" value="" style="edgeStyle=orthogonalEdgeStyle;rounded=0;orthogonalLoop=1;jettySize=auto;html=1;fontSize=18;" parent="1" source="cgIbeY2z_72rr0lLqe45-17" target="cgIbeY2z_72rr0lLqe45-19" edge="1">
          <mxGeometry relative="1" as="geometry" />
        </mxCell>
        <mxCell id="cgIbeY2z_72rr0lLqe45-17" value="&lt;h2&gt;Interceptor1&lt;/h2&gt;&lt;h3&gt;postHeadle()&lt;/h3&gt;" style="rounded=1;whiteSpace=wrap;html=1;fillColor=#9AC7BF;" parent="1" vertex="1">
          <mxGeometry x="510" y="580" width="160" height="80" as="geometry" />
        </mxCell>
        <mxCell id="cgIbeY2z_72rr0lLqe45-18" value="" style="edgeStyle=orthogonalEdgeStyle;rounded=0;orthogonalLoop=1;jettySize=auto;html=1;fontSize=18;" parent="1" source="cgIbeY2z_72rr0lLqe45-19" target="cgIbeY2z_72rr0lLqe45-20" edge="1">
          <mxGeometry relative="1" as="geometry" />
        </mxCell>
        <mxCell id="cgIbeY2z_72rr0lLqe45-19" value="&lt;h2&gt;Interceptor2&lt;/h2&gt;&lt;h3&gt;postHeadle()&lt;/h3&gt;" style="rounded=1;whiteSpace=wrap;html=1;fillColor=#9AC7BF;" parent="1" vertex="1">
          <mxGeometry x="510" y="440" width="160" height="80" as="geometry" />
        </mxCell>
        <mxCell id="cgIbeY2z_72rr0lLqe45-32" value="" style="edgeStyle=orthogonalEdgeStyle;rounded=0;orthogonalLoop=1;jettySize=auto;html=1;" parent="1" source="cgIbeY2z_72rr0lLqe45-20" target="cgIbeY2z_72rr0lLqe45-31" edge="1">
          <mxGeometry relative="1" as="geometry" />
        </mxCell>
        <mxCell id="cgIbeY2z_72rr0lLqe45-20" value="&lt;h2&gt;Interceptor3&lt;/h2&gt;&lt;h3&gt;postHeadle()&lt;/h3&gt;" style="rounded=1;whiteSpace=wrap;html=1;fillColor=#9AC7BF;" parent="1" vertex="1">
          <mxGeometry x="510" y="310" width="160" height="80" as="geometry" />
        </mxCell>
        <mxCell id="cgIbeY2z_72rr0lLqe45-35" value="" style="edgeStyle=orthogonalEdgeStyle;rounded=0;orthogonalLoop=1;jettySize=auto;html=1;" parent="1" source="cgIbeY2z_72rr0lLqe45-21" target="cgIbeY2z_72rr0lLqe45-34" edge="1">
          <mxGeometry relative="1" as="geometry" />
        </mxCell>
        <mxCell id="cgIbeY2z_72rr0lLqe45-21" value="&lt;h2&gt;Interceptor1&lt;/h2&gt;&lt;h3&gt;afterCompletion()&lt;/h3&gt;" style="rounded=1;whiteSpace=wrap;html=1;fillColor=#D4E1F5;" parent="1" vertex="1">
          <mxGeometry x="325" y="320" width="130" height="60" as="geometry" />
        </mxCell>
        <mxCell id="cgIbeY2z_72rr0lLqe45-22" value="" style="edgeStyle=orthogonalEdgeStyle;rounded=0;orthogonalLoop=1;jettySize=auto;html=1;fontSize=18;" parent="1" source="cgIbeY2z_72rr0lLqe45-23" target="cgIbeY2z_72rr0lLqe45-21" edge="1">
          <mxGeometry relative="1" as="geometry" />
        </mxCell>
        <mxCell id="cgIbeY2z_72rr0lLqe45-23" value="&lt;h2&gt;Interceptor2&lt;/h2&gt;&lt;h3&gt;afterCompletion()&lt;/h3&gt;" style="rounded=1;whiteSpace=wrap;html=1;fillColor=#D4E1F5;" parent="1" vertex="1">
          <mxGeometry x="325" y="450" width="130" height="60" as="geometry" />
        </mxCell>
        <mxCell id="cgIbeY2z_72rr0lLqe45-24" value="" style="edgeStyle=orthogonalEdgeStyle;rounded=0;orthogonalLoop=1;jettySize=auto;html=1;fontSize=18;" parent="1" source="cgIbeY2z_72rr0lLqe45-25" target="cgIbeY2z_72rr0lLqe45-23" edge="1">
          <mxGeometry relative="1" as="geometry" />
        </mxCell>
        <mxCell id="cgIbeY2z_72rr0lLqe45-25" value="&lt;h2&gt;Interceptor3&lt;/h2&gt;&lt;h3&gt;afterCompletion()&lt;/h3&gt;" style="rounded=1;whiteSpace=wrap;html=1;fillColor=#D4E1F5;" parent="1" vertex="1">
          <mxGeometry x="325" y="590" width="130" height="60" as="geometry" />
        </mxCell>
        <mxCell id="cgIbeY2z_72rr0lLqe45-28" value="" style="edgeStyle=orthogonalEdgeStyle;rounded=0;orthogonalLoop=1;jettySize=auto;html=1;" parent="1" source="cgIbeY2z_72rr0lLqe45-26" target="cgIbeY2z_72rr0lLqe45-4" edge="1">
          <mxGeometry relative="1" as="geometry" />
        </mxCell>
        <mxCell id="cgIbeY2z_72rr0lLqe45-26" value="&lt;font style=&quot;font-size: 18px&quot;&gt;请求拦截&lt;/font&gt;" style="ellipse;whiteSpace=wrap;html=1;aspect=fixed;fillColor=#FFF2CC;" parent="1" vertex="1">
          <mxGeometry x="150" y="190" width="80" height="80" as="geometry" />
        </mxCell>
        <mxCell id="cgIbeY2z_72rr0lLqe45-33" style="edgeStyle=orthogonalEdgeStyle;rounded=0;orthogonalLoop=1;jettySize=auto;html=1;exitX=0;exitY=0.5;exitDx=0;exitDy=0;entryX=1;entryY=0.5;entryDx=0;entryDy=0;" parent="1" source="cgIbeY2z_72rr0lLqe45-31" target="cgIbeY2z_72rr0lLqe45-25" edge="1">
          <mxGeometry relative="1" as="geometry">
            <Array as="points">
              <mxPoint x="490" y="230" />
              <mxPoint x="490" y="620" />
            </Array>
          </mxGeometry>
        </mxCell>
        <mxCell id="cgIbeY2z_72rr0lLqe45-31" value="&lt;font style=&quot;font-size: 18px&quot;&gt;渲染页面&lt;/font&gt;" style="ellipse;whiteSpace=wrap;html=1;aspect=fixed;fillColor=#FFF2CC;" parent="1" vertex="1">
          <mxGeometry x="550" y="190" width="80" height="80" as="geometry" />
        </mxCell>
        <mxCell id="cgIbeY2z_72rr0lLqe45-34" value="&lt;font style=&quot;font-size: 18px&quot;&gt;结束&lt;/font&gt;" style="ellipse;whiteSpace=wrap;html=1;aspect=fixed;fillColor=#FFF2CC;" parent="1" vertex="1">
          <mxGeometry x="350" y="190" width="80" height="80" as="geometry" />
        </mxCell>
        <mxCell id="cgIbeY2z_72rr0lLqe45-37" value="&lt;font style=&quot;font-size: 18px&quot;&gt;顺序触发&lt;/font&gt;" style="shape=flexArrow;endArrow=classic;html=1;" parent="1" edge="1">
          <mxGeometry width="50" height="50" relative="1" as="geometry">
            <mxPoint x="80" y="200" as="sourcePoint" />
            <mxPoint x="80" y="660" as="targetPoint" />
          </mxGeometry>
        </mxCell>
        <mxCell id="cgIbeY2z_72rr0lLqe45-41" value="&lt;span style=&quot;font-size: 18px&quot;&gt;倒序执行&lt;/span&gt;" style="shape=flexArrow;endArrow=classic;html=1;" parent="1" edge="1">
          <mxGeometry width="50" height="50" relative="1" as="geometry">
            <mxPoint x="700" y="660" as="sourcePoint" />
            <mxPoint x="700" y="200" as="targetPoint" />
          </mxGeometry>
        </mxCell>
        <mxCell id="qbDtzEWRpwSpylmgFQnB-1" value="&lt;h1&gt;HandlerExcutionChain&lt;/h1&gt;" style="text;html=1;align=center;verticalAlign=middle;resizable=0;points=[];autosize=1;strokeColor=none;" vertex="1" parent="1">
          <mxGeometry x="240" y="110" width="270" height="50" as="geometry" />
        </mxCell>
      </root>
    </mxGraphModel>
  </diagram>
</mxfile>
